<svg width="170" height="45" viewBox="0 0 170 45" fill="none" xmlns="http://www.w3.org/2000/svg">
<mask id="mask0_658_184" style="mask-type:luminance" maskUnits="userSpaceOnUse" x="0" y="0" width="170" height="45">
<path d="M170 0H0V44.2152H170V0Z" fill="white"/>
</mask>
<g mask="url(#mask0_658_184)">
<path d="M0 7.39258H20.7692V15.9798H1.26353C0.453175 13.1883 0.0280655 10.2991 0 7.39258Z" fill="#FF8220"/>
<path d="M6.70107 27.8293C4.89615 25.0716 3.38377 22.1331 2.18848 19.0615H23.7474V27.818C23.7474 27.818 17.1138 27.7389 6.70107 27.818" fill="#FF8220"/>
<path d="M25.0549 43.7157C24.7313 43.8857 24.3712 43.9745 24.0057 43.9745C23.6401 43.9745 23.2801 43.8857 22.9565 43.7157C19.099 41.5646 15.6072 38.8147 12.6114 35.5687C12.4986 35.3994 12.4309 35.2302 12.4761 35.1173C12.5212 35.0045 13.0739 34.8916 13.7282 34.8916H35.2871C35.3514 34.8954 35.4139 34.9148 35.4689 34.9483C35.524 34.9817 35.5701 35.0282 35.603 35.0835C35.603 35.185 35.603 35.343 35.4789 35.5122C32.4686 38.7905 28.9487 41.5606 25.0549 43.7157Z" fill="#FF8220"/>
<path d="M41.3328 27.9186C40.8252 28.7198 40.295 29.5096 39.7422 30.2882L39.5729 30.5139L39.054 31.2135C38.975 31.2926 38.9073 31.3377 38.8509 31.3264C38.7945 31.3151 38.7606 31.2247 38.7495 31.1006V30.4688C38.7495 30.3672 38.7495 30.2544 38.7495 30.1416V19.9069L36.0306 18.8914V9.39022L22.8087 4.22212H5.09676C4.97267 4.22212 4.97266 4.22212 4.97266 4.22212C4.97266 4.22212 4.97266 4.14313 5.04034 4.09799C7.14357 3.31641 9.30008 2.68664 11.4933 2.21356C15.6002 1.28252 19.7938 0.787042 24.0045 0.735352C28.2284 0.765597 32.4371 1.24217 36.5608 2.15714C40.3118 2.88237 43.9199 4.21241 47.2443 6.09526C47.4759 6.22877 47.6699 6.41889 47.8081 6.64783C47.9461 6.87676 48.0239 7.13702 48.034 7.40422C48.034 14.0844 45.4732 21.3626 41.3554 27.9073" fill="#FF8220"/>
<path d="M74.6903 25.8424H59.6296V22.9537H74.6114C74.9944 22.9432 75.3658 23.0854 75.644 23.3489C75.9223 23.6123 76.0844 23.9755 76.0949 24.3586C76.1053 24.7416 75.9633 25.1133 75.6999 25.3915C75.4364 25.6697 75.0734 25.832 74.6903 25.8424ZM59.6296 18.0678H74.5437C74.9087 18.0678 75.2588 18.2128 75.5169 18.471C75.775 18.7292 75.92 19.0793 75.92 19.4443C75.92 19.8096 75.775 20.1597 75.5169 20.4178C75.2588 20.676 74.9087 20.8211 74.5437 20.8211H59.6296V18.0678ZM76.845 21.7125C77.4076 21.3367 77.8337 20.7898 78.061 20.1528C78.2889 19.5156 78.3049 18.8223 78.1074 18.1753C77.91 17.5284 77.509 16.9622 76.9647 16.5608C76.4204 16.1593 75.7614 15.9439 75.0852 15.9463H57.3057V27.9187H75.356C76.0994 27.9157 76.8199 27.6622 77.4016 27.1992C77.9832 26.7361 78.3918 26.0905 78.561 25.3666C78.731 24.6426 78.651 23.8827 78.3362 23.2094C78.0205 22.5362 77.4869 21.9889 76.8229 21.656" fill="white"/>
<path d="M83.0656 18.0563H97.4832C97.9318 18.0563 98.3625 18.2346 98.6798 18.552C98.9971 18.8695 99.1756 19.2999 99.1756 19.7488C99.1756 20.1978 98.9971 20.6283 98.6798 20.9457C98.3625 21.2632 97.9318 21.4415 97.4832 21.4415H83.0656V18.0563ZM99.1076 27.9186H101.793L98.6109 23.405C99.5402 23.2133 100.366 22.6818 100.923 21.9145C101.482 21.1473 101.734 20.1993 101.631 19.2557C101.528 18.3122 101.078 17.4411 100.367 16.8124C99.6564 16.1837 98.7365 15.8426 97.7873 15.8558H80.7412V27.9186H83.0656V23.5177H95.9711L99.1076 27.9186Z" fill="white"/>
<path d="M151.27 18.0563H165.688C166.137 18.0563 166.567 18.2346 166.885 18.552C167.201 18.8695 167.38 19.2999 167.38 19.7488C167.38 20.1978 167.201 20.6283 166.885 20.9457C166.567 21.2632 166.137 21.4415 165.688 21.4415H151.27V18.0563ZM167.312 27.9186H169.997L166.805 23.405C167.734 23.2133 168.559 22.6818 169.117 21.9145C169.676 21.1473 169.928 20.1993 169.825 19.2557C169.722 18.3122 169.272 17.4411 168.561 16.8124C167.85 16.1837 166.929 15.8426 165.981 15.8558H148.946V27.9186H151.27V23.5177H164.176L167.312 27.9186Z" fill="white"/>
<path d="M105.867 20.8889V19.7604C105.867 19.3173 106.04 18.8918 106.351 18.5755C106.661 18.2589 107.083 18.0767 107.525 18.0678H122.101V20.9001L105.867 20.8889ZM107.198 15.9352C106.222 15.9756 105.3 16.389 104.62 17.0902C103.939 17.7915 103.553 18.727 103.543 19.704V27.9187H105.867V23.0102H122.101V27.9187H124.425V15.9238L107.198 15.9352Z" fill="white"/>
<path d="M146.707 25.8543H129.255V23.0107H143.243V20.8893H129.255V18.0457H146.707V15.9355H126.908V27.9644H146.707V25.8543Z" fill="white"/>
</g>
</svg>
